<mxfile host="65bd71144e">
    <diagram id="abzY1RjJPJCuiGPU_k1j" name="Page-1">
        <mxGraphModel dx="573" dy="462" grid="0" gridSize="10" guides="1" tooltips="1" connect="1" arrows="1" fold="1" page="1" pageScale="1" pageWidth="850" pageHeight="1100" math="0" shadow="0">
            <root>
                <mxCell id="0"/>
                <mxCell id="1" parent="0"/>
                <mxCell id="20" style="edgeStyle=orthogonalEdgeStyle;rounded=0;orthogonalLoop=1;jettySize=auto;html=1;exitX=1;exitY=0.5;exitDx=0;exitDy=0;entryX=0;entryY=0.5;entryDx=0;entryDy=0;" edge="1" parent="1" source="11" target="14">
                    <mxGeometry relative="1" as="geometry"/>
                </mxCell>
                <mxCell id="21" value="" style="group" vertex="1" connectable="0" parent="1">
                    <mxGeometry x="270" y="223" width="160" height="26" as="geometry"/>
                </mxCell>
                <mxCell id="13" value="Add Item" style="rounded=0;whiteSpace=wrap;html=1;fillColor=#0050ef;strokeColor=#001DBC;fontColor=#ffffff;" vertex="1" parent="21">
                    <mxGeometry x="90" width="70" height="26" as="geometry"/>
                </mxCell>
                <mxCell id="14" value="Text Box" style="rounded=0;whiteSpace=wrap;html=1;fillColor=#f5f5f5;strokeColor=#666666;fontColor=#333333;" vertex="1" parent="21">
                    <mxGeometry width="90" height="26" as="geometry"/>
                </mxCell>
                <mxCell id="30" value="Top Level Component" style="text;html=1;strokeColor=none;fillColor=none;align=center;verticalAlign=middle;whiteSpace=wrap;rounded=0;" vertex="1" parent="1">
                    <mxGeometry x="40" y="20" width="120" height="20" as="geometry"/>
                </mxCell>
                <mxCell id="32" value="2nd Level Components" style="text;html=1;strokeColor=none;fillColor=none;align=center;verticalAlign=middle;whiteSpace=wrap;rounded=0;" vertex="1" parent="1">
                    <mxGeometry x="285" y="20" width="130" height="20" as="geometry"/>
                </mxCell>
                <mxCell id="9" value="Text Box" style="rounded=0;whiteSpace=wrap;html=1;fillColor=#f5f5f5;strokeColor=#666666;fontColor=#333333;" vertex="1" parent="1">
                    <mxGeometry x="20" y="199" width="90" height="26" as="geometry"/>
                </mxCell>
                <mxCell id="11" value="Add Item" style="rounded=0;whiteSpace=wrap;html=1;fillColor=#0050ef;strokeColor=#001DBC;fontColor=#ffffff;" vertex="1" parent="1">
                    <mxGeometry x="110" y="199" width="70" height="26" as="geometry"/>
                </mxCell>
                <mxCell id="54" value="" style="group" vertex="1" connectable="0" parent="1">
                    <mxGeometry x="20" y="95" width="160" height="104" as="geometry"/>
                </mxCell>
                <mxCell id="41" value="" style="rounded=0;whiteSpace=wrap;html=1;" vertex="1" parent="54">
                    <mxGeometry width="159" height="104" as="geometry"/>
                </mxCell>
                <mxCell id="42" value="&amp;nbsp; List" style="rounded=0;whiteSpace=wrap;html=1;fillColor=#1ba1e2;strokeColor=#006EAF;fontColor=#ffffff;align=left;" vertex="1" parent="54">
                    <mxGeometry width="160" height="29" as="geometry"/>
                </mxCell>
                <mxCell id="45" value="" style="group" vertex="1" connectable="0" parent="54">
                    <mxGeometry x="2" y="29" width="157" height="20" as="geometry"/>
                </mxCell>
                <mxCell id="43" value="List Item 1" style="text;html=1;strokeColor=none;fillColor=none;align=center;verticalAlign=middle;whiteSpace=wrap;rounded=0;" vertex="1" parent="45">
                    <mxGeometry width="136" height="20" as="geometry"/>
                </mxCell>
                <mxCell id="44" value="X" style="rounded=0;whiteSpace=wrap;html=1;fillColor=#e51400;strokeColor=#B20000;fontColor=#ffffff;" vertex="1" parent="45">
                    <mxGeometry x="137" width="20" height="19" as="geometry"/>
                </mxCell>
                <mxCell id="46" value="" style="group" vertex="1" connectable="0" parent="54">
                    <mxGeometry x="2" y="49" width="157" height="20" as="geometry"/>
                </mxCell>
                <mxCell id="49" value="" style="group" vertex="1" connectable="0" parent="46">
                    <mxGeometry width="157" height="20" as="geometry"/>
                </mxCell>
                <mxCell id="47" value="List Item 2" style="text;html=1;strokeColor=none;fillColor=none;align=center;verticalAlign=middle;whiteSpace=wrap;rounded=0;" vertex="1" parent="49">
                    <mxGeometry width="136" height="20" as="geometry"/>
                </mxCell>
                <mxCell id="48" value="X" style="rounded=0;whiteSpace=wrap;html=1;fillColor=#e51400;strokeColor=#B20000;fontColor=#ffffff;" vertex="1" parent="49">
                    <mxGeometry x="137" width="20" height="19" as="geometry"/>
                </mxCell>
                <mxCell id="50" value="" style="group" vertex="1" connectable="0" parent="46">
                    <mxGeometry y="20" width="157" height="20" as="geometry"/>
                </mxCell>
                <mxCell id="51" value="List Item 3" style="text;html=1;strokeColor=none;fillColor=none;align=center;verticalAlign=middle;whiteSpace=wrap;rounded=0;" vertex="1" parent="50">
                    <mxGeometry width="136" height="20" as="geometry"/>
                </mxCell>
                <mxCell id="52" value="X" style="rounded=0;whiteSpace=wrap;html=1;fillColor=#e51400;strokeColor=#B20000;fontColor=#ffffff;" vertex="1" parent="50">
                    <mxGeometry x="137" width="20" height="19" as="geometry"/>
                </mxCell>
                <mxCell id="53" value="3 Items" style="text;html=1;strokeColor=none;fillColor=none;align=right;verticalAlign=middle;whiteSpace=wrap;rounded=0;" vertex="1" parent="54">
                    <mxGeometry x="105" y="4.5" width="54" height="20" as="geometry"/>
                </mxCell>
                <mxCell id="55" value="" style="group" vertex="1" connectable="0" parent="1">
                    <mxGeometry x="265" y="91" width="160" height="104" as="geometry"/>
                </mxCell>
                <mxCell id="56" value="" style="rounded=0;whiteSpace=wrap;html=1;" vertex="1" parent="55">
                    <mxGeometry width="159" height="104" as="geometry"/>
                </mxCell>
                <mxCell id="57" value="&amp;nbsp; List" style="rounded=0;whiteSpace=wrap;html=1;fillColor=#1ba1e2;strokeColor=#006EAF;fontColor=#ffffff;align=left;" vertex="1" parent="55">
                    <mxGeometry width="160" height="29" as="geometry"/>
                </mxCell>
                <mxCell id="58" value="" style="group" vertex="1" connectable="0" parent="55">
                    <mxGeometry x="2" y="29" width="157" height="20" as="geometry"/>
                </mxCell>
                <mxCell id="59" value="List Item 1" style="text;html=1;strokeColor=none;fillColor=none;align=center;verticalAlign=middle;whiteSpace=wrap;rounded=0;" vertex="1" parent="58">
                    <mxGeometry width="136" height="20" as="geometry"/>
                </mxCell>
                <mxCell id="60" value="X" style="rounded=0;whiteSpace=wrap;html=1;fillColor=#e51400;strokeColor=#B20000;fontColor=#ffffff;" vertex="1" parent="58">
                    <mxGeometry x="137" width="20" height="19" as="geometry"/>
                </mxCell>
                <mxCell id="61" value="" style="group" vertex="1" connectable="0" parent="55">
                    <mxGeometry x="2" y="49" width="157" height="20" as="geometry"/>
                </mxCell>
                <mxCell id="62" value="" style="group" vertex="1" connectable="0" parent="61">
                    <mxGeometry width="157" height="20" as="geometry"/>
                </mxCell>
                <mxCell id="63" value="List Item 2" style="text;html=1;strokeColor=none;fillColor=none;align=center;verticalAlign=middle;whiteSpace=wrap;rounded=0;" vertex="1" parent="62">
                    <mxGeometry width="136" height="20" as="geometry"/>
                </mxCell>
                <mxCell id="64" value="X" style="rounded=0;whiteSpace=wrap;html=1;fillColor=#e51400;strokeColor=#B20000;fontColor=#ffffff;" vertex="1" parent="62">
                    <mxGeometry x="137" width="20" height="19" as="geometry"/>
                </mxCell>
                <mxCell id="65" value="" style="group" vertex="1" connectable="0" parent="61">
                    <mxGeometry y="20" width="157" height="20" as="geometry"/>
                </mxCell>
                <mxCell id="66" value="List Item 3" style="text;html=1;strokeColor=none;fillColor=none;align=center;verticalAlign=middle;whiteSpace=wrap;rounded=0;" vertex="1" parent="65">
                    <mxGeometry width="136" height="20" as="geometry"/>
                </mxCell>
                <mxCell id="67" value="X" style="rounded=0;whiteSpace=wrap;html=1;fillColor=#e51400;strokeColor=#B20000;fontColor=#ffffff;" vertex="1" parent="65">
                    <mxGeometry x="137" width="20" height="19" as="geometry"/>
                </mxCell>
                <mxCell id="68" value="3 Items" style="text;html=1;strokeColor=none;fillColor=none;align=right;verticalAlign=middle;whiteSpace=wrap;rounded=0;" vertex="1" parent="55">
                    <mxGeometry x="105" y="4.5" width="54" height="20" as="geometry"/>
                </mxCell>
                <mxCell id="85" value="" style="group" vertex="1" connectable="0" parent="55">
                    <mxGeometry x="218" y="48" width="157" height="20" as="geometry"/>
                </mxCell>
                <mxCell id="86" value="List Item 1" style="text;html=1;strokeColor=none;fillColor=none;align=center;verticalAlign=middle;whiteSpace=wrap;rounded=0;" vertex="1" parent="85">
                    <mxGeometry width="136" height="20" as="geometry"/>
                </mxCell>
                <mxCell id="87" value="X" style="rounded=0;whiteSpace=wrap;html=1;fillColor=#e51400;strokeColor=#B20000;fontColor=#ffffff;" vertex="1" parent="85">
                    <mxGeometry x="137" width="20" height="19" as="geometry"/>
                </mxCell>
                <mxCell id="90" style="edgeStyle=orthogonalEdgeStyle;rounded=0;orthogonalLoop=1;jettySize=auto;html=1;exitX=1;exitY=0.5;exitDx=0;exitDy=0;entryX=0;entryY=0.5;entryDx=0;entryDy=0;" edge="1" parent="55" source="60" target="86">
                    <mxGeometry relative="1" as="geometry"/>
                </mxCell>
                <mxCell id="69" style="edgeStyle=orthogonalEdgeStyle;rounded=0;orthogonalLoop=1;jettySize=auto;html=1;exitX=1;exitY=0.75;exitDx=0;exitDy=0;entryX=0;entryY=0.5;entryDx=0;entryDy=0;" edge="1" parent="1" source="53" target="57">
                    <mxGeometry relative="1" as="geometry"/>
                </mxCell>
                <mxCell id="88" value="&amp;nbsp; List" style="rounded=0;whiteSpace=wrap;html=1;fillColor=#1ba1e2;strokeColor=#006EAF;fontColor=#ffffff;align=left;" vertex="1" parent="1">
                    <mxGeometry x="485" y="75" width="160" height="29" as="geometry"/>
                </mxCell>
                <mxCell id="89" style="edgeStyle=orthogonalEdgeStyle;rounded=0;orthogonalLoop=1;jettySize=auto;html=1;exitX=1;exitY=0.5;exitDx=0;exitDy=0;entryX=0;entryY=0.5;entryDx=0;entryDy=0;" edge="1" parent="1" source="68" target="88">
                    <mxGeometry relative="1" as="geometry"/>
                </mxCell>
                <mxCell id="91" value="3rd Level Components" style="text;html=1;strokeColor=none;fillColor=none;align=center;verticalAlign=middle;whiteSpace=wrap;rounded=0;" vertex="1" parent="1">
                    <mxGeometry x="500" y="20" width="130" height="20" as="geometry"/>
                </mxCell>
            </root>
        </mxGraphModel>
    </diagram>
</mxfile>